<svg width="123" height="82" viewBox="0 0 123 82" fill="none" xmlns="http://www.w3.org/2000/svg">
<g clip-path="url(#clip0_4217_59189)">
<path d="M15.7622 6.86646e-05H107.192C115.893 6.86646e-05 123 7.11675 123 15.9093V65.3358C123 74.1053 115.893 81.245 107.192 81.245H15.7622C7.03833 81.245 0 74.1283 0 65.3358V15.9093C0 7.11675 7.03833 6.86646e-05 15.7622 6.86646e-05Z" fill="#E11837"/>
<g filter="url(#filter0_i_4217_59189)">
<path fill-rule="evenodd" clip-rule="evenodd" d="M111.178 51.01C111.178 49.0357 112.772 47.5664 114.663 47.5664C116.531 47.5664 118.148 49.0357 118.148 51.01C118.148 53.0302 116.531 54.4765 114.663 54.4765C112.772 54.4765 111.178 53.0072 111.178 51.01ZM111.861 51.01C111.861 52.6858 113.091 53.9025 114.663 53.9025C116.212 53.9025 117.419 52.6858 117.419 51.01C117.419 49.38 116.212 48.1403 114.663 48.1403C113.091 48.1403 111.861 49.3571 111.861 51.01ZM116.234 50.16C116.234 50.8947 115.802 51.1931 115.209 51.262L116.371 53.0297H115.688L114.64 51.3079H113.957V53.0297H113.364V49.0352H114.845C115.779 49.0352 116.234 49.3795 116.234 50.16ZM113.934 49.5402V50.7799H114.663C115.164 50.7799 115.619 50.7569 115.619 50.1371C115.619 49.655 115.164 49.5402 114.754 49.5402H113.934Z" fill="white"/>
</g>
<path d="M115.21 51.2621C115.802 51.1932 116.235 50.8948 116.235 50.1601C116.235 49.3796 115.78 49.0352 114.846 49.0352H113.365V53.0298H113.957V51.308H114.641L115.689 53.0298H116.372L115.21 51.2621ZM113.935 50.78V49.5403H114.755C115.165 49.5403 115.62 49.6551 115.62 50.1372C115.62 50.757 115.165 50.78 114.664 50.78H113.935Z" fill="white"/>
<path d="M86.6684 52.1355C85.9623 52.6864 85.3017 52.6635 84.8917 52.3191C84.14 51.6763 84.4134 49.8627 84.4134 46.5799C84.4134 42.5853 81.8623 40.7488 77.2384 40.2208L77.2612 39.8535C80.1767 39.2336 84.5273 37.7644 84.5956 33.5862C84.6412 28.9259 79.1973 27.0894 75.2339 27.0894H60.9067C59.9045 27.0894 59.8817 28.3749 60.9067 28.3749H61.3623C61.3623 28.3749 63.8451 28.2143 63.8451 30.9461V49.4725C63.8451 53.0078 61.2028 52.7783 61.2028 52.7783H60.7473C59.8134 52.7783 59.8134 53.972 60.7473 53.972H74.3456C75.2112 53.972 75.1884 52.7783 74.3456 52.7783H73.6167C72.2728 52.7783 71.2934 52.4798 71.2934 49.4725V41.1391C71.2934 41.1391 71.2706 40.5881 71.9539 40.5881H73.6395C75.6212 40.5881 76.4412 41.6212 76.4412 43.4577C76.4412 44.2842 76.3728 48.0032 76.3956 48.6001C76.35 53.2833 79.4251 54.3393 82.5 54.4312C84.55 54.4771 85.8712 54.1786 87.3289 53.2374C88.2173 52.6176 87.6023 51.6763 86.6684 52.1355ZM73.2978 39.2107H71.8173C71.8173 39.2107 71.4073 39.2107 71.4073 38.7974V28.9718C71.4073 28.9718 71.3162 28.4438 71.9312 28.4438H73.9812C77.0789 28.4438 77.2612 30.8543 77.2839 32.6679V35.3768C77.2612 38.1546 75.6895 39.2107 73.2978 39.2107Z" fill="white"/>
<path d="M99.7202 26.6069C91.7936 26.6069 86.5547 34.2287 86.5547 40.4959C86.5547 46.7632 91.7936 54.3849 99.7202 54.3849C107.647 54.3849 112.909 46.7632 112.909 40.4959C112.909 34.2287 107.647 26.6069 99.7202 26.6069ZM99.7202 52.8927C96.463 52.8927 94.823 50.6429 94.823 40.4959C94.823 30.3489 96.463 28.0991 99.7202 28.0991C102.977 28.0991 104.617 30.3489 104.617 40.4959C104.617 50.62 102.977 52.8927 99.7202 52.8927Z" fill="white"/>
<path d="M47.6963 26.6069C42.1157 26.6069 37.8563 30.3719 35.8291 34.8026V27.8925C35.8291 27.8925 35.8519 27.1349 35.1458 27.1349H11.4569C10.7507 27.1349 10.7735 27.8925 10.7735 27.8925V37.764C10.7735 38.5905 11.9352 38.5905 11.9352 37.764C11.958 31.5657 14.2585 28.1221 18.5635 28.4894C19.1785 28.4894 19.4746 28.6731 19.4974 29.3388V49.4951C19.4974 53.1453 16.5819 52.8468 16.5819 52.8468H15.8757C14.7824 52.8468 14.7596 53.9488 15.8757 53.9488H30.7496C31.843 53.9488 31.8202 52.8468 30.7496 52.8468H30.0435C30.0435 52.8468 27.128 53.1453 27.128 49.4951V29.3388C27.1507 28.6731 27.4469 28.4894 28.0846 28.4894C32.3213 28.1221 34.6219 31.4738 34.6902 37.5345C34.6902 37.7411 34.5535 39.6924 34.5535 40.473C34.5535 46.7402 39.7924 54.362 47.7419 54.362C55.6685 54.362 60.9302 46.7402 60.9302 40.473C60.8619 34.2287 55.623 26.6069 47.6963 26.6069ZM47.6963 52.8927C44.4391 52.8927 42.7991 50.6429 42.7991 40.4959C42.7991 30.3489 44.4391 28.0991 47.6963 28.0991C50.9535 28.0991 52.5935 30.3489 52.5935 40.4959C52.5935 50.62 50.9535 52.8927 47.6963 52.8927Z" fill="white"/>
</g>
<defs>
<filter id="filter0_i_4217_59189" x="111.178" y="47.5664" width="6.9707" height="10.9101" filterUnits="userSpaceOnUse" color-interpolation-filters="sRGB">
<feFlood flood-opacity="0" result="BackgroundImageFix"/>
<feBlend mode="normal" in="SourceGraphic" in2="BackgroundImageFix" result="shape"/>
<feColorMatrix in="SourceAlpha" type="matrix" values="0 0 0 0 0 0 0 0 0 0 0 0 0 0 0 0 0 0 127 0" result="hardAlpha"/>
<feOffset dy="4"/>
<feGaussianBlur stdDeviation="2"/>
<feComposite in2="hardAlpha" operator="arithmetic" k2="-1" k3="1"/>
<feColorMatrix type="matrix" values="0 0 0 0 0 0 0 0 0 0 0 0 0 0 0 0 0 0 0.06 0"/>
<feBlend mode="normal" in2="shape" result="effect1_innerShadow_4217_59189"/>
</filter>
<clipPath id="clip0_4217_59189">
<rect width="123" height="81.2679" fill="white"/>
</clipPath>
</defs>
</svg>
